# xmcd
#
# Track frame offsets:
#   150
#   16677
#   28832
#   43445
#   61447
#   87100
#   107675
#   115085
#   136305
#   157810
#   176637
#   192350
#   208767
#   224782
#   241097
#   258530
#   275235
#
# Disc length: 4296 seconds
#
# Revision: 0
# Processed by: cddbd v1.5.1PL2 Copyright (c) Steve Scherf et al.
# Submitted via: uFREEDB ActiveX Control 1.5
#
DISCID=fc10c611
DTITLE=GORILLAZ - LOFI THRILLER
DYEAR=1900
DGENRE=Hip Hop
TTITLE0=RE-HASH
TTITLE1=54 
TTITLE2=TOMRROW COMES TODAY
TTITLE3=NEW GENIOUS
TTITLE4=CLINT E ASTWOOD
TTITLE5=MAN RESEARCH
TTITLE6=PUNK
TTITLE7=SOUND CHECK
TTITLE8=DOUBLE BASS
TTITLE9=ROCK THE HOUSE
TTITLE10=19-2000
TTITLE11=LATIN SIMONE
TTITLE12=STARSHINE
TTITLE13=SLOW COUNTRY
TTITLE14=M1A1
TTITLE15=CLINT EASTWOOD (REMIX)
TTITLE16=19-2000 (REMIX)
EXTD=
EXTT0=
EXTT1=
EXTT2=
EXTT3=
EXTT4=
EXTT5=
EXTT6=
EXTT7=
EXTT8=
EXTT9=
EXTT10=
EXTT11=
EXTT12=
EXTT13=
EXTT14=
EXTT15=
EXTT16=
PLAYORDER=
